<svg xmlns="http://www.w3.org/2000/svg" width="23.422" height="37.01" viewBox="0 0 23.422 37.01">
  <path id="icon-tyui" d="M5.014,36a2.312,2.312,0,0,1-2.47-2.178,2.046,2.046,0,0,1,.728-1.554L1.656,19.483A2.142,2.142,0,0,1,.58,17.664a2.294,2.294,0,0,1,2.31-2.187S.707,7.564.142,5.517A4.425,4.425,0,0,1,3.243.143a4.456,4.456,0,0,1,5.381,3.1c.619,2.19,2.936,10.715,2.936,10.715L14.3,6.923a1.271,1.271,0,0,1,.375-.6c.356-.368,3.36-3.259,4.057-3.935a1.954,1.954,0,0,1,1.982-.532A1.717,1.717,0,0,1,21.9,3.565c.1,1.106.467,5.236.5,5.56a1.278,1.278,0,0,1-.124.732l-2.27,5.692a2.223,2.223,0,0,1,1.818,2.116,2.14,2.14,0,0,1-1.076,1.819L19.133,32.268a2.049,2.049,0,0,1,.728,1.555A2.313,2.313,0,0,1,17.39,36ZM2.05,17.664c0,.391.422.708.95.729L4.862,33.126c-.478.053-.848.346-.848.7,0,.391.449.708,1,.708H17.39c.551,0,1-.317,1-.708,0-.351-.369-.644-.848-.7L19.4,18.393c.528-.021.949-.338.949-.729s-.448-.73-1-.73H3.047C2.5,16.934,2.05,17.264,2.05,17.664Zm1.576-16.1A2.955,2.955,0,0,0,1.561,5.135l2.85,10.328h6.04L7.207,3.626A2.958,2.958,0,0,0,4.359,1.467,2.843,2.843,0,0,0,3.626,1.562ZM16.279,15.378h2.212l2.17-5.441-2.1-.755Zm-3.7,0h2.129l2.461-6.692s-1.728-.62-1.743-.628Zm3.7-8.573,4.582,1.643-.143-1.62-3.227-1.2ZM18.66,4.494l1.917.712s.013-1.831-.387-1.965a.185.185,0,0,0-.06-.009C19.69,3.232,18.66,4.494,18.66,4.494ZM6.506,31.808,4.974,19.492a.735.735,0,0,1,1.459-.181L7.964,31.628a.734.734,0,0,1-.639.819.617.617,0,0,1-.091.006A.734.734,0,0,1,6.506,31.808ZM5.47,11.427,3.722,4.52a.735.735,0,1,1,1.426-.36l1.747,6.907a.736.736,0,0,1-.532.893.64.64,0,0,1-.157.019A.794.794,0,0,1,5.47,11.427Z" transform="translate(0.516 0.509)" fill="#222" stroke="rgba(0,0,0,0)" stroke-miterlimit="10" stroke-width="1"/>
</svg>
