<?xml version="1.0" encoding="UTF-8"?>
<svg id="_レイヤー_2" data-name="レイヤー 2" xmlns="http://www.w3.org/2000/svg" width="32.26" height="32.5" viewBox="0 0 32.26 32.5">
  <defs>
    <style>
      .cls-1 {
        fill: #f9f9f9;
      }
    </style>
  </defs>
  <g id="_レイヤー_1-2" data-name="レイヤー 1">
    <g>
      <path class="cls-1" d="M16.08,0c8.94-.03,16.15,7.3,16.18,16.2.03,8.9-7.14,16.27-16.08,16.3C7.23,32.52.03,25.2,0,16.3-.03,7.39,7.14.03,16.08,0ZM1.91,17.03c.43,7.85,7.13,13.97,15.01,13.54,7.88-.44,13.86-7.26,13.43-15.11-.43-7.85-7.13-13.97-15.01-13.54C7.45,2.36,1.48,9.18,1.91,17.03Z"/>
      <path class="cls-1" d="M22.45,20.93s.06,0,.07.03c0,0,0,.01,0,.02v3.04c0,.06-.04.11-.09.12-2.11.64-4.3.9-6.56.75-3.46-.22-6.03-1.96-6.65-5.52-.46-2.66-.4-5.03.2-7.13,1.03-3.63,4.05-4.81,7.54-4.8,1.93,0,3.72.27,5.37.78.05.02.09.06.09.12v3.07s-.03.06-.06.06c0,0-.01,0-.02,0-1.8-.63-3.67-.92-5.63-.86-2.13.06-3.53.88-3.89,3.11-.21,1.26-.24,2.63-.1,4.12.16,1.72.75,3.32,2.61,3.77,1.37.34,2.77.22,4.18.06,1.02-.12,2-.36,2.96-.74Z"/>
    </g>
  </g>
</svg>